<?xml version="1.0" encoding="UTF-8"?>
<!DOCTYPE svg PUBLIC "-//W3C//DTD SVG 1.1//EN" "http://www.w3.org/Graphics/SVG/1.1/DTD/svg11.dtd">
<svg xmlns="http://www.w3.org/2000/svg" version="1.1" width="1024px" height="1024px" style="shape-rendering:geometricPrecision; text-rendering:geometricPrecision; image-rendering:optimizeQuality; fill-rule:evenodd; clip-rule:evenodd" xmlns:xlink="http://www.w3.org/1999/xlink">
<g><path style="opacity:0.997" fill="#000000" d="M 889.5,489.5 C 893.961,607.695 854.627,708.195 771.5,791C 668.222,885.156 548.222,916.489 411.5,885C 294.7,850.349 211.2,777.516 161,666.5C 110.907,541.464 120.24,421.131 189,305.5C 197.612,292.555 206.612,279.889 216,267.5C 228.28,253.248 240.78,239.248 253.5,225.5C 256.833,222.5 260.167,219.5 263.5,216.5C 264.552,216.649 265.552,216.483 266.5,216C 348.301,146.405 442.968,116.739 550.5,127C 660.684,142.65 748.851,194.816 815,283.5C 858.133,345.386 882.966,414.053 889.5,489.5 Z M 500.5,139.5 C 610.631,140.795 703.131,181.462 778,261.5C 861.114,359.949 889.78,472.616 864,599.5C 833.577,715.225 764.411,798.725 656.5,850C 542.321,899.004 431.321,892.671 323.5,831C 240.446,779.146 185.28,705.979 158,611.5C 126.92,480.503 154.587,363.836 241,261.5C 310.847,185.662 397.347,144.996 500.5,139.5 Z M 313.5,463.5 C 327.923,466.414 337.59,474.914 342.5,489C 349.369,508.371 347.869,527.205 338,545.5C 322.713,566.407 307.046,566.74 291,546.5C 279.146,525.223 278.48,503.556 289,481.5C 294.554,471.668 302.72,465.668 313.5,463.5 Z"/></g>
<g><path style="opacity:0.922" fill="#100f0b" d="M 890.5,489.5 C 890.167,489.5 889.833,489.5 889.5,489.5C 882.966,414.053 858.133,345.386 815,283.5C 748.851,194.816 660.684,142.65 550.5,127C 442.968,116.739 348.301,146.405 266.5,216C 265.552,216.483 264.552,216.649 263.5,216.5C 360.579,134.648 471.579,107.148 596.5,134C 724.508,169.42 813.674,248.587 864,371.5C 878.642,409.544 887.475,448.877 890.5,489.5 Z"/></g>
<g><path style="opacity:0.999" fill="#000000" d="M 520.5,297.5 C 544.212,296.589 565.545,303.089 584.5,317C 603.143,336.089 604.31,356.256 588,377.5C 567.795,398.024 543.128,408.024 514,407.5C 485.413,407.195 459.913,398.362 437.5,381C 416.924,362.339 408.257,339.172 411.5,311.5C 420.965,314.306 430.632,315.14 440.5,314C 456.981,310.618 473.314,306.618 489.5,302C 499.907,299.966 510.241,298.466 520.5,297.5 Z"/></g>
<g><path style="opacity:0.995" fill="#010000" d="M 397.5,349.5 C 402.536,367.57 411.702,383.236 425,396.5C 423.97,411.659 421.637,426.659 418,441.5C 416.262,448.382 413.928,455.048 411,461.5C 405.222,456.637 400.889,450.637 398,443.5C 388.096,419.602 385.429,394.935 390,369.5C 391.618,362.478 394.118,355.811 397.5,349.5 Z"/></g>
<g><path style="opacity:0.995" fill="#010000" d="M 615.5,349.5 C 616.496,349.414 617.329,349.748 618,350.5C 629.438,372.334 632.438,395.334 627,419.5C 624.483,432.055 619.817,443.721 613,454.5C 610.933,457.07 608.433,459.07 605.5,460.5C 602.317,453.788 599.817,446.788 598,439.5C 595.066,425.896 592.566,412.23 590.5,398.5C 596.56,392.61 602.06,386.277 607,379.5C 612.38,370.196 615.214,360.196 615.5,349.5 Z"/></g>
<g><path style="opacity:0.982" fill="#050401" d="M 702.5,392.5 C 706.223,392.223 708.556,393.89 709.5,397.5C 706.073,404.893 702.739,405.06 699.5,398C 699.863,395.808 700.863,393.974 702.5,392.5 Z"/></g>
<g><path style="opacity:0.982" fill="#050401" d="M 714.5,392.5 C 721.299,393.109 722.966,396.275 719.5,402C 715.074,403.252 712.408,401.586 711.5,397C 712.315,395.357 713.315,393.857 714.5,392.5 Z"/></g>
<g><path style="opacity:0.982" fill="#090802" d="M 297.5,408.5 C 301.766,408.125 304.433,409.959 305.5,414C 301.378,421.413 297.712,421.247 294.5,413.5C 295.26,411.64 296.26,409.973 297.5,408.5 Z"/></g>
<g><path style="opacity:0.982" fill="#050401" d="M 309.5,408.5 C 313.925,407.757 316.592,409.59 317.5,414C 315.949,418.245 313.116,419.412 309,417.5C 307.042,414.352 307.208,411.352 309.5,408.5 Z"/></g>
<g><path style="opacity:0.983" fill="#040301" d="M 802.5,409.5 C 808.718,411.052 810.051,414.552 806.5,420C 801.921,421.577 798.921,420.077 797.5,415.5C 798.497,412.845 800.164,410.845 802.5,409.5 Z"/></g>
<g><path style="opacity:0.983" fill="#050100" d="M 213.5,410.5 C 219.85,409.525 222.35,412.192 221,418.5C 218,422.5 215,422.5 212,418.5C 211.282,415.593 211.782,412.926 213.5,410.5 Z"/></g>
<g><path style="opacity:0.993" fill="#000000" d="M 690.5,435.5 C 704.35,434.766 718.016,435.933 731.5,439C 738.731,441.352 744.564,445.518 749,451.5C 749.667,452.5 749.667,453.5 749,454.5C 747.207,455.97 745.207,456.97 743,457.5C 731.797,447.988 718.797,443.655 704,444.5C 703.501,449.155 703.334,453.821 703.5,458.5C 707.5,458.5 711.5,458.5 715.5,458.5C 715.5,466.5 715.5,474.5 715.5,482.5C 703.833,482.5 692.167,482.5 680.5,482.5C 680.5,474.5 680.5,466.5 680.5,458.5C 684.833,458.5 689.167,458.5 693.5,458.5C 693.5,453.833 693.5,449.167 693.5,444.5C 692.167,444.5 690.833,444.5 689.5,444.5C 689.264,441.391 689.597,438.391 690.5,435.5 Z"/></g>
<g><path style="opacity:0.983" fill="#000000" d="M 202.5,442.5 C 210.368,441.672 212.701,444.672 209.5,451.5C 201.673,452.857 199.34,449.857 202.5,442.5 Z"/></g>
<g><path style="opacity:0.984" fill="#090802" d="M 812.5,441.5 C 818.69,443.134 820.024,446.634 816.5,452C 810.143,453.481 807.643,450.981 809,444.5C 810.145,443.364 811.312,442.364 812.5,441.5 Z"/></g>
<g><path style="opacity:0.922" fill="#0e0d0b" d="M 253.5,225.5 C 240.78,239.248 228.28,253.248 216,267.5C 206.612,279.889 197.612,292.555 189,305.5C 120.24,421.131 110.907,541.464 161,666.5C 211.2,777.516 294.7,850.349 411.5,885C 548.222,916.489 668.222,885.156 771.5,791C 854.627,708.195 893.961,607.695 889.5,489.5C 889.833,489.5 890.167,489.5 890.5,489.5C 895.172,608.059 855.839,708.892 772.5,792C 668.575,886.484 547.909,917.817 410.5,886C 293.7,851.349 210.2,778.516 160,667.5C 128.202,592.316 120.202,514.65 136,434.5C 153.925,352.524 193.092,282.858 253.5,225.5 Z"/></g>
<g><path style="opacity:0.993" fill="#010100" d="M 308.5,453.5 C 331.859,454.344 347.026,466.01 354,488.5C 362.679,519.145 355.679,545.479 333,567.5C 326.848,575.603 324.348,584.77 325.5,595C 326.904,608.816 327.737,622.649 328,636.5C 324.876,647.645 318.042,651.145 307.5,647C 304.193,644.222 302.026,640.722 301,636.5C 300.961,621.968 301.795,607.468 303.5,593C 303.471,579.109 297.971,567.942 287,559.5C 270.929,538.082 266.596,514.415 274,488.5C 279.759,470.83 291.259,459.163 308.5,453.5 Z M 313.5,463.5 C 302.72,465.668 294.554,471.668 289,481.5C 278.48,503.556 279.146,525.223 291,546.5C 307.046,566.74 322.713,566.407 338,545.5C 347.869,527.205 349.369,508.371 342.5,489C 337.59,474.914 327.923,466.414 313.5,463.5 Z"/></g>
<g><path style="opacity:0.993" fill="#010000" d="M 393.5,461.5 C 401.338,462.157 406.838,466.157 410,473.5C 411.175,487.186 411.675,500.686 411.5,514C 407.75,514.045 404.584,512.545 402,509.5C 392.473,496.602 388.473,482.268 390,466.5C 390.997,464.677 392.164,463.01 393.5,461.5 Z"/></g>
<g><path style="opacity:0.993" fill="#000000" d="M 618.5,461.5 C 624.404,460.894 627.904,463.561 629,469.5C 629.63,486.612 623.797,501.112 611.5,513C 609.975,514.009 608.308,514.509 606.5,514.5C 606.333,500.496 606.5,486.496 607,472.5C 610.07,467.927 613.904,464.261 618.5,461.5 Z"/></g>
<g><path style="opacity:0.983" fill="#000000" d="M 198.5,473.5 C 205.488,473.654 207.488,476.82 204.5,483C 199.698,485.266 196.698,483.766 195.5,478.5C 196.092,476.577 197.092,474.911 198.5,473.5 Z"/></g>
<g><path style="opacity:0.983" fill="#040301" d="M 815.5,473.5 C 822.112,473.406 824.278,476.406 822,482.5C 817.401,485.456 814.234,484.29 812.5,479C 813.124,476.915 814.124,475.082 815.5,473.5 Z"/></g>
<g><path style="opacity:0.985" fill="#040301" d="M 298.5,478.5 C 308.839,478.334 319.172,478.5 329.5,479C 333.167,480 333.5,481.667 330.5,484C 319.833,484.667 309.167,484.667 298.5,484C 295.982,482.19 295.982,480.357 298.5,478.5 Z"/></g>
<g><path style="opacity:0.985" fill="#000000" d="M 294.5,491.5 C 308.171,491.333 321.837,491.5 335.5,492C 336.554,493.388 336.72,494.888 336,496.5C 333.932,497.394 331.765,498.06 329.5,498.5C 316.864,497.538 304.198,497.205 291.5,497.5C 291.5,495.833 291.5,494.167 291.5,492.5C 292.791,492.737 293.791,492.404 294.5,491.5 Z"/></g>
<g><path style="opacity:0.998" fill="#000000" d="M 682.5,492.5 C 693.91,492.067 705.244,492.567 716.5,494C 722.82,496.986 726.987,501.819 729,508.5C 730.639,551.462 730.973,594.462 730,637.5C 729.017,645.33 724.85,650.497 717.5,653C 704.485,654.742 691.485,654.742 678.5,653C 673.288,650.753 669.788,646.92 668,641.5C 666.361,598.871 666.027,556.205 667,513.5C 668.244,503.445 673.411,496.445 682.5,492.5 Z"/></g>
<g><path style="opacity:0.986" fill="#000000" d="M 291.5,505.5 C 306.504,505.333 321.504,505.5 336.5,506C 338.658,507.312 338.991,508.978 337.5,511C 321.833,511.667 306.167,511.667 290.5,511C 289.156,508.856 289.49,507.023 291.5,505.5 Z"/></g>
<g><path style="opacity:0.985" fill="#000000" d="M 177.5,512.5 C 191.171,512.333 204.837,512.5 218.5,513C 221.167,514.667 221.167,516.333 218.5,518C 204.833,518.667 191.167,518.667 177.5,518C 174.982,516.19 174.982,514.357 177.5,512.5 Z"/></g>
<g><path style="opacity:0.986" fill="#030401" d="M 799.5,512.5 C 813.504,512.333 827.504,512.5 841.5,513C 844.167,514.667 844.167,516.333 841.5,518C 827.833,518.667 814.167,518.667 800.5,518C 798.19,516.541 797.857,514.708 799.5,512.5 Z"/></g>
<g><path style="opacity:0.986" fill="#010100" d="M 290.5,519.5 C 305.837,519.333 321.17,519.5 336.5,520C 338.527,521.396 338.86,523.062 337.5,525C 322.167,525.667 306.833,525.667 291.5,525C 289.19,523.541 288.857,521.708 290.5,519.5 Z"/></g>
<g><path style="opacity:0.983" fill="#090702" d="M 180.5,522.5 C 191.275,523.778 202.109,523.778 213,522.5C 216.013,522.444 218.513,523.444 220.5,525.5C 220.023,526.478 219.357,527.311 218.5,528C 204.5,528.667 190.5,528.667 176.5,528C 175.483,526.951 175.316,525.784 176,524.5C 177.622,523.901 179.122,523.234 180.5,522.5 Z"/></g>
<g><path style="opacity:0.983" fill="#0a0903" d="M 803.5,522.5 C 815.186,523.768 826.853,523.768 838.5,522.5C 840.664,522.998 842.331,524.164 843.5,526C 842.833,526.667 842.167,527.333 841.5,528C 827.5,528.667 813.5,528.667 799.5,528C 798.483,526.951 798.316,525.784 799,524.5C 800.622,523.901 802.122,523.234 803.5,522.5 Z"/></g>
<g><path style="opacity:0.986" fill="#19170b" d="M 297.5,532.5 C 308.967,532.98 320.134,532.98 331,532.5C 334.592,532.926 336.092,534.926 335.5,538.5C 321.5,538.5 307.5,538.5 293.5,538.5C 293.5,536.833 293.5,535.167 293.5,533.5C 295.099,533.768 296.432,533.434 297.5,532.5 Z"/></g>
<g><path style="opacity:0.984" fill="#000000" d="M 301.5,546.5 C 309.84,546.334 318.173,546.5 326.5,547C 328.13,550.062 327.13,551.729 323.5,552C 317.5,552.667 311.5,552.667 305.5,552C 301.11,552.132 299.777,550.299 301.5,546.5 Z"/></g>
<g><path style="opacity:0.983" fill="#000000" d="M 199.5,562.5 C 204.083,561.343 206.75,563.01 207.5,567.5C 205.674,572.699 202.507,573.699 198,570.5C 196.296,567.527 196.796,564.86 199.5,562.5 Z"/></g>
<g><path style="opacity:0.983" fill="#000000" d="M 813.5,562.5 C 818.422,561.238 821.089,563.071 821.5,568C 820.472,572.206 817.805,573.539 813.5,572C 809.649,568.856 809.649,565.689 813.5,562.5 Z"/></g>
<g><path style="opacity:0.983" fill="#000000" d="M 206.5,595.5 C 212.908,595.81 214.908,598.976 212.5,605C 206.24,607.412 203.407,605.245 204,598.5C 204.698,597.309 205.531,596.309 206.5,595.5 Z"/></g>
<g><path style="opacity:0.983" fill="#000000" d="M 806.5,595.5 C 814.818,595.987 816.485,599.487 811.5,606C 807.236,606.869 804.569,605.202 803.5,601C 804.223,598.982 805.223,597.148 806.5,595.5 Z"/></g>
<g><path style="opacity:0.983" fill="#000000" d="M 215.5,626.5 C 222.112,626.406 224.278,629.406 222,635.5C 217.401,638.456 214.234,637.29 212.5,632C 213.124,629.915 214.124,628.082 215.5,626.5 Z"/></g>
<g><path style="opacity:0.996" fill="#000000" d="M 438.5,626.5 C 453.979,635.408 469.645,644.075 485.5,652.5C 486.817,662.06 486.817,671.56 485.5,681C 469.979,688.593 454.646,696.427 439.5,704.5C 438.5,678.509 438.167,652.509 438.5,626.5 Z"/></g>
<g><path style="opacity:0.997" fill="#060401" d="M 576.5,626.5 C 577.289,626.783 577.956,627.283 578.5,628C 578.3,653.421 578.3,678.921 578.5,704.5C 561.881,697.107 545.714,688.773 530,679.5C 529.818,670.922 529.318,662.422 528.5,654C 544.726,645.059 560.726,635.892 576.5,626.5 Z"/></g>
<g><path style="opacity:0.984" fill="#100c04" d="M 797.5,626.5 C 803.326,626.157 805.826,628.824 805,634.5C 800.003,638.891 796.503,637.891 794.5,631.5C 795.26,629.64 796.26,627.973 797.5,626.5 Z"/></g>
<g><path style="opacity:0.983" fill="#000000" d="M 229.5,654.5 C 234.795,653.963 237.295,656.297 237,661.5C 233.667,666.833 230.333,666.833 227,661.5C 226.683,658.793 227.516,656.46 229.5,654.5 Z"/></g>
<g><path style="opacity:0.983" fill="#000000" d="M 783.5,654.5 C 789.33,654.161 791.83,656.827 791,662.5C 787.157,666.729 783.823,666.395 781,661.5C 780.683,658.793 781.516,656.46 783.5,654.5 Z"/></g>
<g><path style="opacity:0.993" fill="#000000" d="M 498.5,654.5 C 505.078,655.46 511.745,655.793 518.5,655.5C 518.5,663.167 518.5,670.833 518.5,678.5C 511.468,678.83 504.468,678.497 497.5,677.5C 497.04,673.234 496.706,668.734 496.5,664C 496.597,660.567 497.263,657.4 498.5,654.5 Z"/></g>
<g><path style="opacity:0.984" fill="#080702" d="M 246.5,684.5 C 254.818,684.987 256.485,688.487 251.5,695C 245.273,695.772 242.939,693.105 244.5,687C 245.056,685.989 245.722,685.156 246.5,684.5 Z"/></g>
<g><path style="opacity:0.984" fill="#000000" d="M 766.5,684.5 C 774.162,684.027 776.496,687.193 773.5,694C 770.165,696.291 767.332,695.791 765,692.5C 764.282,689.593 764.782,686.926 766.5,684.5 Z"/></g>
</svg>
