<?xml version="1.0" standalone="no"?>
<!DOCTYPE svg PUBLIC "-//W3C//DTD SVG 20010904//EN"
 "http://www.w3.org/TR/2001/REC-SVG-20010904/DTD/svg10.dtd">
<svg version="1.0" xmlns="http://www.w3.org/2000/svg"
 width="1024.000000pt" height="1024.000000pt" viewBox="0 0 1024.000000 1024.000000"
 preserveAspectRatio="xMidYMid meet">
<metadata>
Created by potrace 1.14, written by Peter Selinger 2001-2017
</metadata>
<g transform="translate(0.000000,1024.000000) scale(0.100000,-0.100000)"
fill="#000000" stroke="none">
<path d="M4860 8993 c-1347 -92 -2537 -898 -3159 -2138 -218 -437 -364 -956
-402 -1435 -15 -188 -6 -624 16 -790 118 -897 510 -1682 1151 -2311 170 -166
215 -204 374 -323 448 -331 977 -567 1515 -675 276 -55 635 -88 850 -77 567
30 1052 153 1540 391 567 277 1010 643 1392 1150 422 559 662 1162 755 1895
20 164 17 731 -5 889 -106 752 -389 1422 -836 1984 -126 159 -455 490 -604
609 -193 153 -472 330 -706 448 -418 209 -902 342 -1385 380 -118 9 -386 11
-496 3z m400 -163 c203 -12 283 -21 474 -56 394 -72 799 -223 1142 -425 99
-58 307 -195 369 -242 224 -172 426 -359 574 -532 448 -522 746 -1152 871
-1840 66 -363 68 -873 5 -1242 -65 -376 -162 -677 -325 -1008 -175 -353 -379
-649 -640 -927 -492 -523 -1163 -900 -1895 -1066 -517 -118 -1101 -106 -1632
33 -382 100 -781 278 -1098 488 -782 520 -1361 1365 -1559 2273 -34 158 -62
347 -77 522 -15 180 -6 614 15 772 71 513 249 1026 507 1455 481 801 1225
1386 2104 1654 229 70 529 124 785 140 193 12 188 12 380 1z"/>
<path d="M5129 7250 c-122 -11 -231 -33 -419 -85 -209 -57 -304 -75 -395 -75
-69 0 -150 11 -187 25 -16 7 -18 -1 -18 -84 0 -320 167 -579 475 -738 346
-178 831 -169 1126 20 120 77 217 188 262 299 32 82 30 215 -4 288 -116 244
-453 385 -840 350z"/>
<path d="M3951 6679 c-111 -243 -79 -687 69 -944 16 -27 43 -65 60 -84 25 -27
34 -31 41 -20 33 53 101 337 130 542 l12 88 -35 37 c-100 105 -156 198 -213
357 l-33 90 -31 -66z"/>
<path d="M6160 6701 c0 -57 -43 -185 -85 -256 -20 -33 -65 -89 -100 -125 l-64
-65 15 -95 c34 -231 110 -530 134 -530 27 0 84 71 125 154 139 284 152 645 31
885 -20 39 -41 71 -46 71 -6 0 -10 -18 -10 -39z"/>
<path d="M7016 6291 c-22 -24 -17 -59 10 -78 18 -12 24 -11 47 8 31 24 34 49
9 72 -24 22 -45 21 -66 -2z"/>
<path d="M7134 6289 c-17 -19 -17 -23 -3 -47 21 -39 70 -38 84 2 8 24 6 31
-14 47 -30 24 -43 24 -67 -2z"/>
<path d="M2965 6126 c-13 -19 -13 -28 -4 -49 15 -34 36 -41 65 -22 33 21 36
60 6 83 -25 19 -50 14 -67 -12z"/>
<path d="M3090 6125 c-29 -53 32 -102 74 -59 20 19 20 34 0 62 -21 30 -57 28
-74 -3z"/>
<path d="M8017 6129 c-54 -30 -34 -103 26 -97 56 5 64 79 11 99 -11 4 -28 3
-37 -2z"/>
<path d="M2130 6111 c-17 -32 -11 -60 15 -77 23 -15 27 -15 50 0 44 29 26 96
-25 96 -19 0 -33 -7 -40 -19z"/>
<path d="M6908 5875 c-5 -5 -8 -26 -8 -47 0 -31 3 -38 20 -38 18 0 20 -7 20
-70 l0 -70 -65 0 -65 0 0 -120 0 -120 175 0 175 0 0 120 0 120 -60 0 -60 0 0
68 0 67 98 -6 c82 -5 110 -11 163 -36 35 -17 77 -42 92 -57 32 -30 48 -32 82
-10 33 22 31 37 -10 79 -41 40 -118 82 -190 102 -55 16 -356 30 -367 18z"/>
<path d="M8111 5804 c-39 -28 -20 -94 27 -94 35 0 52 17 52 51 0 43 -44 67
-79 43z"/>
<path d="M2021 5784 c-24 -53 42 -99 83 -58 34 33 8 84 -43 84 -20 0 -31 -7
-40 -26z"/>
<path d="M3055 5687 c-115 -39 -197 -112 -262 -235 -52 -98 -72 -171 -80 -297
-13 -218 53 -396 211 -564 100 -106 124 -197 106 -396 -6 -60 -13 -157 -16
-215 -5 -97 -4 -109 18 -149 30 -57 66 -83 117 -85 51 -1 89 26 119 84 27 54
28 116 6 267 -22 146 -16 321 12 383 12 25 55 83 97 129 128 141 184 277 194
467 14 265 -97 493 -284 586 -73 36 -173 46 -238 25z m192 -119 c129 -60 224
-254 224 -461 -1 -163 -53 -305 -148 -401 -85 -84 -179 -108 -268 -67 -73 33
-158 144 -205 268 -35 90 -39 263 -11 368 28 102 63 166 128 232 88 90 176
110 280 61z"/>
<path d="M2980 5435 c-10 -12 -10 -18 0 -30 10 -12 42 -15 171 -15 147 0 159
1 169 20 17 32 -16 40 -178 40 -121 0 -152 -3 -162 -15z"/>
<path d="M2938 5313 c-11 -3 -18 -14 -18 -28 l0 -23 198 -4 c229 -4 247 -1
247 33 l0 24 -205 1 c-113 1 -213 0 -222 -3z"/>
<path d="M2912 5171 c-8 -5 -12 -17 -10 -27 3 -18 16 -19 243 -19 227 0 240 1
243 19 2 10 -2 22 -10 27 -7 5 -112 9 -233 9 -121 0 -226 -4 -233 -9z"/>
<path d="M2907 5033 c-13 -12 -7 -41 9 -47 9 -3 117 -6 240 -6 191 0 225 2
230 15 4 8 1 22 -6 30 -10 12 -51 15 -240 15 -124 0 -230 -3 -233 -7z"/>
<path d="M2963 4903 c-16 -3 -23 -12 -23 -29 l0 -24 210 0 c201 0 210 1 210
19 0 11 -4 23 -10 26 -12 7 -356 15 -387 8z"/>
<path d="M3016 4753 c-12 -31 12 -38 129 -38 117 0 144 8 132 39 -10 24 -252
24 -261 -1z"/>
<path d="M3927 5602 c-41 -45 -45 -96 -17 -207 39 -151 135 -305 191 -305 20
0 20 3 15 202 l-5 202 -28 40 c-53 75 -122 106 -156 68z"/>
<path d="M6164 5601 c-17 -10 -45 -36 -62 -57 l-32 -39 0 -207 c0 -237 0 -236
74 -168 83 77 164 277 153 383 -8 91 -66 130 -133 88z"/>
<path d="M1975 5480 c-36 -40 7 -100 58 -81 33 13 43 46 23 76 -20 30 -56 32
-81 5z"/>
<path d="M8144 5475 c-19 -29 -11 -60 18 -76 26 -14 64 2 73 31 9 30 -19 70
-50 70 -15 0 -31 -10 -41 -25z"/>
<path d="M6792 5289 c-55 -27 -100 -92 -113 -163 -6 -34 -9 -287 -7 -673 l3
-618 27 -47 c15 -25 45 -57 65 -70 36 -22 45 -23 220 -22 160 2 187 4 220 21
44 23 78 69 93 124 7 25 10 257 8 666 -3 691 -1 668 -66 737 -52 56 -91 66
-257 66 -133 0 -155 -2 -193 -21z"/>
<path d="M1770 5095 c-10 -12 -10 -18 0 -30 10 -12 47 -15 210 -15 109 0 205
3 214 6 9 3 16 14 16 24 0 10 -7 21 -16 24 -9 3 -105 6 -214 6 -163 0 -200 -3
-210 -15z"/>
<path d="M7997 5103 c-13 -12 -7 -41 9 -47 9 -3 105 -6 214 -6 163 0 200 3
210 15 10 12 10 18 0 30 -10 12 -48 15 -220 15 -113 0 -210 -3 -213 -7z"/>
<path d="M1789 5000 c-15 -4 -24 -13 -24 -25 0 -19 9 -20 211 -23 181 -2 213
0 224 13 28 34 -2 40 -199 40 -104 0 -199 -2 -212 -5z"/>
<path d="M8018 5000 c-14 -4 -23 -13 -23 -25 0 -19 9 -20 211 -23 164 -2 214
1 222 11 27 32 -1 38 -196 40 -105 1 -201 0 -214 -3z"/>
<path d="M1984 4585 c-15 -23 -15 -27 0 -50 27 -40 96 -25 96 21 0 55 -66 75
-96 29z"/>
<path d="M8124 4586 c-15 -24 -15 -28 0 -52 14 -19 24 -24 48 -22 40 4 55 28
42 65 -14 40 -66 45 -90 9z"/>
<path d="M2056 4264 c-39 -39 1 -106 52 -88 20 7 28 17 30 40 5 54 -47 84 -82
48z"/>
<path d="M8060 4265 c-30 -36 -4 -95 40 -95 22 0 50 32 50 57 0 43 -64 70 -90
38z"/>
<path d="M2144 3945 c-19 -29 -11 -60 18 -76 26 -14 64 2 73 31 9 30 -19 70
-50 70 -15 0 -31 -10 -41 -25z"/>
<path d="M4390 3579 c0 -214 3 -389 8 -389 4 1 111 54 237 120 l230 119 3 138
2 138 -240 131 -240 132 0 -389z"/>
<path d="M5560 3850 c-118 -66 -226 -126 -239 -133 -23 -14 -23 -17 -22 -143
1 -86 6 -133 14 -140 18 -17 453 -244 467 -244 10 0 12 79 8 385 -3 212 -7
387 -9 389 -2 3 -101 -49 -219 -114z"/>
<path d="M7965 3946 c-33 -50 20 -104 70 -72 30 20 33 56 7 79 -26 24 -59 21
-77 -7z"/>
<path d="M2283 3664 c-15 -24 -15 -29 -2 -53 11 -19 23 -26 44 -26 21 0 33 7
44 26 13 24 13 29 -2 53 -11 16 -27 26 -42 26 -15 0 -31 -10 -42 -26z"/>
<path d="M4978 3679 c-9 -6 -9 -188 0 -216 3 -9 34 -13 108 -13 l104 0 0 114
0 115 -101 3 c-56 2 -106 0 -111 -3z"/>
<path d="M7823 3664 c-15 -24 -15 -29 -2 -53 18 -32 54 -39 80 -15 24 22 24
49 -1 74 -27 27 -56 25 -77 -6z"/>
<path d="M2464 3382 c-38 -25 -16 -102 30 -102 27 0 56 29 56 57 0 38 -54 67
-86 45z"/>
<path d="M7660 3371 c-15 -30 -12 -56 10 -76 45 -41 110 18 76 70 -21 31 -70
35 -86 6z"/>
</g>
</svg>
